inDegrees=no
num_controls=7
num_derivatives=13
num_iterations=99
num_multipliers=7
num_parameters=0
num_slacks=7
num_states=26
objective=0.430929
objective_accelerations=0.050262
objective_balance=0.006986
objective_effort=0.031475
objective_height=0.341035
objective_ligament=0.001172
solver_duration=1256.619515
status=Solve_Succeeded
success=true
DataType=double
version=3
OpenSimVersion=4.5
endheader
time	/jointset/ground_pelvis/pelvis_tilt/value	/jointset/ground_pelvis/pelvis_tx/value	/jointset/ground_pelvis/pelvis_ty/value	/jointset/hip_l/hip_flexion_l/value	/jointset/hip_l/hip_adduction_l/value	/jointset/hip_l/hip_rotation_l/value	/jointset/back/lumbar_extension/value	/jointset/patellofemoral_l/patellar_flexion_l/value	/jointset/knee_l/knee_flexion_l/value	/jointset/knee_l/knee_adduction_l/value	/jointset/knee_l/knee_rotation_l/value	/jointset/ankle_l/ankle_angle_l/value	/jointset/subtalar_l/subtalar_angle_l/value	/jointset/ground_pelvis/pelvis_tilt/speed	/jointset/ground_pelvis/pelvis_tx/speed	/jointset/ground_pelvis/pelvis_ty/speed	/jointset/hip_l/hip_flexion_l/speed	/jointset/hip_l/hip_adduction_l/speed	/jointset/hip_l/hip_rotation_l/speed	/jointset/back/lumbar_extension/speed	/jointset/patellofemoral_l/patellar_flexion_l/speed	/jointset/knee_l/knee_flexion_l/speed	/jointset/knee_l/knee_adduction_l/speed	/jointset/knee_l/knee_rotation_l/speed	/jointset/ankle_l/ankle_angle_l/speed	/jointset/subtalar_l/subtalar_angle_l/speed	/forceset/tau_hip_flexion_l	/forceset/tau_hip_adduction_l	/forceset/tau_hip_rotation_l	/forceset/tau_knee_flexion_l	/forceset/tau_ankle_angle_l	/forceset/tau_subtalar_angle_l	/forceset/tau_lumbar_extension	lambda_cid13_p0	lambda_cid13_p1	lambda_cid13_p2	lambda_cid13_p3	lambda_cid13_p4	lambda_cid13_p5	lambda_cid14_p0	/jointset/ground_pelvis/pelvis_tilt/accel	/jointset/ground_pelvis/pelvis_tx/accel	/jointset/ground_pelvis/pelvis_ty/accel	/jointset/hip_l/hip_flexion_l/accel	/jointset/hip_l/hip_adduction_l/accel	/jointset/hip_l/hip_rotation_l/accel	/jointset/back/lumbar_extension/accel	/jointset/patellofemoral_l/patellar_flexion_l/accel	/jointset/knee_l/knee_flexion_l/accel	/jointset/knee_l/knee_adduction_l/accel	/jointset/knee_l/knee_rotation_l/accel	/jointset/ankle_l/ankle_angle_l/accel	/jointset/subtalar_l/subtalar_angle_l/accel	gamma_cid13_p0	gamma_cid13_p1	gamma_cid13_p2	gamma_cid13_p3	gamma_cid13_p4	gamma_cid13_p5	gamma_cid14_p0
1	-0.4564373716314479	-0.05881800737392234	0.5883049004457409	1.798260881032889	-0.2721525850358472	0.2244836242261527	-0.4363226780273665	1.426190714244562	1.426190714244609	-0.1744608313135474	0.174531430036571	0.3011613981181955	0.04665233238102291	-0.009737286967985636	0.00125537257539044	-0.003346193263812903	0.01543040304480151	0.0009288408613012261	0.00339283486002168	0.0001064401462238254	0.008922297509103618	0.008922297509103373	1.71964327759545e-05	-1.594503901674145e-05	0.00379611291682133	0.002209172397849485	-0.3371891390218745	0.00504253134657801	-0.01240691686783874	-0.3673767673113881	0.05654755247478337	0.01522855238840559	0.2993222963707179	-28.17586460464705	-0.3027603587200354	-1.927712914584907	17.3092242592395	-729.9988491807317	-54.21568187835323	-0.0392198850539404	1.073913913648474	-0.02934039469706742	1.821094353727569	-5.747592900415103	-0.609992927071335	-2.085599690550907	-0.01946017881381721	-5.560300466537991	-5.560300466537947	-0.06832703600154022	0.0170856773930845	-1.189625166891638	-1.083293204061175	-1.279373172081797e-10	3.494258888176268e-09	-1.037674892005173e-08	4.124662537466356e-10	1.853900027518397e-09	-1.668618257879906e-09	1.677771656428481e-09
1.01	-0.4564814633711479	-0.05880689497882706	0.5883623896975845	1.798128399793403	-0.2721729518146526	0.2244112658403118	-0.436322144483131	1.426002321317429	1.426002321317487	-0.1744608748428537	0.1745312666428497	0.3011402429299206	0.04662152395752223	0.0009162807700430326	0.0009717932636337125	0.01484119407215156	-0.0419213696006383	-0.004999629220346742	-0.01786138598894526	-1.366327377390124e-06	-0.04659349307324858	-0.04659349307324848	-2.507003210408854e-05	-1.543908035620221e-05	-0.008022381654074524	-0.008365084993941859	-0.3369464488201479	0.005026692628708506	-0.01243488428778891	-0.3674631168461084	0.05698384270993503	0.01520956258292289	0.2991643155856132	-28.02168431730068	-0.321777298127674	-1.924374438377332	17.10022843902051	-729.8420232006005	-54.23324599574602	-0.03922854977960301	1.060679776022459	-0.02716217801054399	1.817131749151234	-5.728177169060574	-0.5838953158968609	-2.144870470407577	-0.006686136142023439	-5.54610825360816	-5.54610825360814	0.0279449874581307	-0.008283392440001558	-1.177245328850898	-1.043631557549776	-2.365271324683792e-09	-3.807330805043186e-10	4.483546245623335e-08	7.4212414260798e-09	-8.596077320886922e-09	3.946292628710798e-08	-8.007746307982035e-09
1.02	-0.4564190991190398	-0.05879847747256844	0.5886016669879115	1.797422559282972	-0.2722525275477116	0.2241264578083142	-0.4363227380545233	1.425258992504568	1.425258992504637	-0.1744613167489685	0.174531145019208	0.3010010460506043	0.04648514504994131	0.01155391139376749	0.0007163948080579261	0.0330114144329312	-0.09924145114416374	-0.01091294998940832	-0.03909709437143252	-0.0001189829813283181	-0.1020648796365742	-0.1020648796365744	-6.247892940871555e-05	-7.591023397179655e-06	-0.01981222529146388	-0.01890492441819983	-0.3367037586184188	0.005010853910840312	-0.01246285170774793	-0.3675494663808286	0.05742013294508652	0.01519057277744204	0.2990063348005109	-27.87565378718028	-0.3382615815508866	-1.922702950312533	16.9425483798256	-729.787134388245	-54.19828369281261	-0.03923068225509365	1.070726490787631	-0.02370422346087864	1.817660958690603	-5.741254680032235	-0.6069630645540579	-2.081897197254977	-0.02142221488380296	-5.551419662732672	-5.551419662732759	-0.06735552248645703	0.01855409705278481	-1.183894980190337	-1.076409610554504	-4.894784188198059e-09	-4.055532978885657e-09	1.002741842369785e-07	1.528072519978905e-08	-1.94490500853704e-08	7.982292865805859e-08	-1.755888077964579e-08
1.03	-0.4562503817719685	-0.05879243953274573	0.5890225121257459	1.796143715221918	-0.2723910945368259	0.2236295077553345	-0.4363244593639773	1.42396122426961	1.423961224269671	-0.174462155511009	0.1745311129863029	0.300744043717357	0.04624364203175512	0.02219256299597907	0.0004992071979505074	0.05114997504278099	-0.1565183988570133	-0.01679089898640925	-0.06027881241807274	-0.000217190501753576	-0.157476264491015	-0.1574762644910151	-0.0001074570545892181	-4.691842922188283e-07	-0.03158837316401476	-0.02937920395351348	-0.3363891145202224	0.005080850785963475	-0.01254763908131959	-0.3673741473666424	0.05785136795177537	0.01523970064508859	0.298831242323167	-27.71233822758688	-0.3969751717888633	-1.903311133633169	16.72149495794506	-729.5194337722806	-54.18485474800048	-0.03925906831166677	1.060886277737473	-0.01951924609729343	1.810801771434249	-5.719570252666899	-0.5768012787378551	-2.134214284013482	-0.002806759598145542	-5.534116987567183	-5.534116987567095	0.02659200614545938	-0.008493088084883195	-1.174491235716125	-1.030483456311683	-7.427278468610682e-09	-7.728290101039451e-09	1.557152173483813e-07	2.314888967351235e-08	-3.030613504797712e-08	1.201750581496823e-07	-2.710864399117948e-08
1.04	-0.455975187552316	-0.0587883321122864	0.589624512501539	1.794292370596585	-0.2725881591082032	0.2229211594867601	-0.4363269200964199	1.422109718367953	1.422109718368007	-0.1744635118615633	0.1745310953087053	0.3003692765963982	0.04589788695195741	0.03284928591017279	0.0003302909353823598	0.06924246202471451	-0.2137415640000856	-0.02261246644200023	-0.08137673749051125	-0.0002668675812281658	-0.2128124129761519	-0.2128124129761511	-0.0001659966325967723	-4.71996215666008e-06	-0.04336518283371209	-0.03975533674050277	-0.3360744704220259	0.005150847661088058	-0.01263242645489605	-0.3671988283524562	0.0582826029584645	0.01528882851273723	0.2986561498458228	-27.55721384730733	-0.4531675589874642	-1.885563114461058	16.55137113436306	-729.3540657172219	-54.11956963108971	-0.03928096370444725	1.074340753184059	-0.01404995395302275	1.808446233107349	-5.730498166076773	-0.5956867562720668	-2.065138602414644	-0.01171612669365888	-5.536372388871878	-5.536372388871805	-0.0700678130518651	0.01627957365890962	-1.184027339619624	-1.056780260889636	-1.002970125096105e-08	-1.271514049245347e-08	2.079447583344909e-07	2.984523399441465e-08	-4.037199172482897e-08	1.576771552106554e-07	-3.640647299947493e-08
1.05	-0.455593203905626	-0.05878562963118984	0.5904071442544189	1.791869078038503	-0.2728430986914838	0.2220023236410595	-0.4363296010457602	1.419705371636344	1.419705371636383	-0.1744655103677454	0.1745310072721298	0.2998767298666866	0.04544896220707458	0.04356391198246208	0.000222505756837747	0.08727006400349381	-0.2709072320992166	-0.02835988994823013	-0.1023730314731995	-0.0002581471327913242	-0.2680301987683908	-0.2680301987683889	-0.0002308603999801847	-1.160400618657481e-05	-0.0551448684653745	-0.05000276031947976	-0.3356712859171025	0.005246588363542603	-0.01277265533469638	-0.3667076242842103	0.05868320950738325	0.01544817776748019	0.298446371358301	-27.3866740337119	-0.5746271194398389	-1.840619798480319	16.30757077739637	-728.910777281542	-54.1186172807509	-0.03932682514769616	1.072495339299439	-0.007290360599618988	1.797833314050619	-5.708143603621862	-0.5619741393257002	-2.114299907041017	0.008842403625176508	-5.510462254691704	-5.510462254691585	0.02571140489055234	-0.009040217932658039	-1.175039755136051	-1.004724250975092	-1.263430929899697e-08	-1.774305629853187e-08	2.600739401916851e-07	3.650495893554129e-08	-5.041312251775099e-08	1.950901887581708e-07	-4.569642906391919e-08
1.06	-0.455103579637204	-0.0587836345140376	0.5913696352538439	1.788874420305072	-0.2731550533081321	0.2208740398333634	-0.4363318595359891	1.416749650930755	1.416749650930779	-0.1744680760989057	0.1745308768302143	0.2992663661646189	0.04489836305748731	0.05437741025667434	0.0001888181465200481	0.1052143113337673	-0.328014599069971	-0.03401547311555008	-0.1232663298896928	-0.0001823757638403345	-0.3230872077723026	-0.3230872077723003	-0.0002794416284777612	-1.320103016523258e-05	-0.06692857730489707	-0.06009021768139133	-0.3352681014121776	0.005342329065998062	-0.01291288421449642	-0.3662164202159647	0.05908381605630173	0.01560752702222435	0.2982365928707808	-27.22446784072127	-0.6934937389386449	-1.797385178948416	16.11417565019262	-728.5710551002891	-54.06700018522722	-0.03936615753330001	1.094115193568649	0.0007695596923627359	1.791775303406189	-5.718837940401433	-0.5773186884900807	-2.044539489175662	0.001694057409268068	-5.504217031206431	-5.504217031206534	-0.06681130527469334	0.01733697766916738	-1.184831981191654	-1.024787017476556	-1.568023952200519e-08	-2.298057178731956e-08	3.100533832208649e-07	4.317400653722412e-08	-5.956120405750317e-08	2.306895724018821e-07	-5.478161387588571e-08
